{"title":"Sky High 2005 DVDrip English Klam","uid":6203836,"size":1784332897,"categoryP":"video","categoryS":"movies","magnet":"?xt=urn:btih:a133d989cde73a836ec0ef4b98f029a6816204a9&amp;dn=Sky+High+2005+DVDrip+English+Klam&amp;tr=udp%3A%2F%2Ftracker.openbittorrent.com%3A80&amp;tr=udp%3A%2F%2Fopen.demonii.com%3A1337&amp;tr=udp%3A%2F%2Ftracker.coppersurfer.tk%3A6969&amp;tr=udp%3A%2F%2Fexodus.desync.com%3A6969","seeders":0,"leechers":1,"uploader":"Klambake","files":-1,"time":1298719440,"description":"With: Michael Angarano, Kurt Russell and Kelly Preston\n\nIt all begins when young Will Stronghold, the son of the two famous superheroes: Steve and Josie, A.K.A. the incredibly strong, seemingly invulnerable Commander and and the high-speed flying Jetstream. However, Will does not actually know if he has any powers of his own, and has not told his parents this. He and his best friend, Layla are facing their first day of a secret school in the clouds like none on earth: Sky High, the first and only high school for kids with super-human powers going through crime-fighting puberty. But with no apparent superpowers of his own, however, Will seems destined to grow up a mere sidekick. But as he discovers his true strengths, he'll also learn that it takes loyalty and teamwork to truly become a hero!\n\nGeneral:\n\nComplete name                    : Sky High\\Sky High.avi\nFormat                           : AVI\nFormat/Info                      : Audio Video Interleave\nFile size                        : 1.66 GiB\nDuration                         : 1h 39mn\nOverall bit rate                 : 2 391 Kbps\n\nVideo:\n\nFormat                           : MPEG-4 Visual\nFormat profile                   : Simple@L3\nFormat settings, BVOP            : No\nFormat settings, QPel            : No\nFormat settings, GMC             : No warppoints\nFormat settings, Matrix          : Default (H.263)\nCodec ID                         : XVID\nCodec ID/Hint                    : XviD\nDuration                         : 1h 39mn\nBit rate                         : 1 932 Kbps\nWidth                            : 704 pixels\nHeight                           : 396 pixels\nDisplay aspect ratio             : 16:9\nFrame rate                       : 23.976 fps\nColor space                      : YUV\nChroma subsampling               : 4:2:0\nBit depth                        : 8 bits\nScan type                        : Progressive\nBits/(Pixel*Frame)               : 0.289\nStream size                      : 1.34 GiB (81%)\nWriting library                  : XviD 1.1.2 (UTC 2006-11-01)\n\nAudio:\n\nFormat                           : AC-3\nFormat/Info                      : Audio Coding 3\nMode extension                   : CM (complete main)\nCodec ID                         : 2000\nDuration                         : 1h 39mn\nBit rate mode                    : Constant\nBit rate                         : 448 Kbps\nChannel(s)                       : 6 channels\nChannel positions                : Front: L C R, Side: L R, LFE\nSampling rate                    : 48.0 KHz\nBit depth                        : 16 bits\nStream size                      : 319 MiB (19%)\nAlignment                        : Aligned on interleaves\nInterleave, duration             : 32 ms (0.77 video frame)\nInterleave, preload duration     : 288 ms\n","torrent":{"xt":"urn:btih:a133d989cde73a836ec0ef4b98f029a6816204a9","amp;dn":"Sky+High+2005+DVDrip+English+Klam","amp;tr":["udp%3A%2F%2Ftracker.openbittorrent.com%3A80","udp%3A%2F%2Fopen.demonii.com%3A1337","udp%3A%2F%2Ftracker.coppersurfer.tk%3A6969","udp%3A%2F%2Fexodus.desync.com%3A6969"],"infoHash":"a133d989cde73a836ec0ef4b98f029a6816204a9","infoHashBuffer":{"type":"Buffer","data":[161,51,217,137,205,231,58,131,110,192,239,75,152,240,41,166,129,98,4,169]},"announce":[],"urlList":[]}}